<?xml version="1.0" encoding="UTF-8" standalone="no"?>
<!DOCTYPE svg PUBLIC "-//W3C//DTD SVG 1.1//EN" "http://www.w3.org/Graphics/SVG/1.1/DTD/svg11.dtd">
<svg width="100%" height="100%" viewBox="0 0 600 600" version="1.1" xmlns="http://www.w3.org/2000/svg" xmlns:xlink="http://www.w3.org/1999/xlink" xml:space="preserve" xmlns:serif="http://www.serif.com/" style="fill-rule:evenodd;clip-rule:evenodd;stroke-linejoin:round;stroke-miterlimit:2;">
    <g transform="matrix(0.884685,0.884685,-1.18527,1.18527,369.591,41.0961)">
        <g transform="matrix(2.091e-15,3.6122,-3.62006,1.66927e-15,350.177,-63.4894)">
            <rect x="53.17" y="90.885" width="6.455" height="23.128" style="fill:url(#_Linear1);"/>
        </g>
        <g transform="matrix(4.83948,-2.02457e-15,1.05847e-15,10.9435,-12.0081,-982.579)">
            <rect x="53.17" y="90.885" width="6.455" height="23.128" style="fill:url(#_Linear2);"/>
        </g>
        <g transform="matrix(4.83948,-1.27538e-15,1.05847e-15,6.89385,-63.3545,-614.529)">
            <rect x="53.17" y="90.885" width="6.455" height="23.128" style="fill:url(#_Linear3);"/>
        </g>
        <g transform="matrix(4.83948,-6.36185e-16,1.05847e-15,3.43878,-63.3545,-126.939)">
            <rect x="53.17" y="90.885" width="6.455" height="23.128" style="fill:url(#_Linear4);"/>
        </g>
        <g transform="matrix(9.56591e-16,3.73732,-3.56891,9.86173e-16,549.561,42.29)">
            <rect x="53.17" y="90.885" width="6.455" height="23.128" style="fill:url(#_Linear5);"/>
        </g>
        <g transform="matrix(9.56591e-16,3.73732,-3.56891,9.86173e-16,549.561,-13.1164)">
            <rect x="53.17" y="90.885" width="6.455" height="23.128" style="fill:url(#_Linear6);"/>
        </g>
        <g transform="matrix(-4.83948,9.51665e-16,-1.48086e-15,-2.68647,456.864,453.882)">
            <rect x="53.17" y="90.885" width="6.455" height="23.128" style="fill:url(#_Linear7);"/>
        </g>
        <g transform="matrix(9.56591e-16,3.73732,-3.56891,9.86173e-16,549.561,-51.3765)">
            <rect x="53.17" y="90.885" width="6.455" height="23.128" style="fill:url(#_Linear8);"/>
        </g>
        <g transform="matrix(4.83948,-9.72317e-16,1.05847e-15,5.25569,-114.656,-428.184)">
            <rect x="53.17" y="90.885" width="6.455" height="23.128" style="fill:url(#_Linear9);"/>
        </g>
        <g transform="matrix(-7.82702e-16,-3.6122,5.83253,-5.23475e-16,-491.087,264.858)">
            <rect x="53.17" y="90.885" width="6.455" height="23.128" style="fill:url(#_Linear10);"/>
        </g>
        <g transform="matrix(4.83948,-3.65586e-16,1.05847e-15,1.97611,-218.31,-130.119)">
            <rect x="53.17" y="90.885" width="6.455" height="23.128" style="fill:url(#_Linear11);"/>
        </g>
        <g transform="matrix(4.83948,-6.36185e-16,1.05847e-15,3.43878,-114.656,-126.939)">
            <rect x="53.17" y="90.885" width="6.455" height="23.128" style="fill:url(#_Linear12);"/>
        </g>
        <g transform="matrix(-1.98653e-15,-3.6122,5.78012,-1.56253e-15,-536.483,324.802)">
            <rect x="53.17" y="90.885" width="6.455" height="23.128" style="fill:url(#_Linear13);"/>
        </g>
        <g transform="matrix(5.00711,-1.91166e-15,1.97683e-15,3.63601,-176.022,-243.519)">
            <rect x="53.17" y="90.885" width="6.455" height="23.128" style="fill:url(#_Linear14);"/>
        </g>
        <g transform="matrix(5.00711,-1.40053e-15,1.97683e-15,2.66384,-277.382,-132.679)">
            <rect x="53.17" y="90.885" width="6.455" height="23.128" style="fill:url(#_Linear15);"/>
        </g>
        <g transform="matrix(-1.98653e-15,-3.6122,5.78012,-1.56253e-15,-536.483,363.093)">
            <rect x="53.17" y="90.885" width="6.455" height="23.128" style="fill:url(#_Linear16);"/>
        </g>
        <g transform="matrix(4.83948,-6.39669e-16,1.05847e-15,3.45762,-165.883,-129.087)">
            <rect x="53.17" y="90.885" width="6.455" height="23.128" style="fill:url(#_Linear17);"/>
        </g>
        <g transform="matrix(4.83948,-6.39669e-16,1.05847e-15,3.45762,-217.355,-129.087)">
            <rect x="53.17" y="90.885" width="6.455" height="23.128" style="fill:url(#_Linear18);"/>
        </g>
        <g transform="matrix(2.17058e-15,3.6122,-10.1309,1.25307e-15,1094.65,-180.039)">
            <rect x="53.17" y="90.885" width="6.455" height="23.128" style="fill:url(#_Linear19);"/>
        </g>
        <g transform="matrix(4.83948,-6.39669e-16,1.05847e-15,3.45762,-268.602,-129.087)">
            <rect x="53.17" y="90.885" width="6.455" height="23.128" style="fill:url(#_Linear20);"/>
        </g>
        <g transform="matrix(4.83948,-6.6599e-16,1.05847e-15,3.59989,-268.469,-315.156)">
            <rect x="53.17" y="90.885" width="6.455" height="23.128" style="fill:url(#_Linear21);"/>
        </g>
        <g transform="matrix(4.83948,-2.02463e-15,1.05847e-15,10.9438,-319.871,-982.608)">
            <rect x="53.17" y="90.885" width="6.455" height="23.128" style="fill:url(#_Linear22);"/>
        </g>
        <g transform="matrix(1.77407e-15,3.73732,-8.00885,1.19261e-15,850.558,42.29)">
            <rect x="53.17" y="90.885" width="6.455" height="23.128" style="fill:url(#_Linear23);"/>
        </g>
    </g>
    <defs>
        <linearGradient id="_Linear1" x1="0" y1="0" x2="1" y2="0" gradientUnits="userSpaceOnUse" gradientTransform="matrix(-1.49214e-13,102.303,-76.5256,-1.63425e-13,55.9392,58.5466)"><stop offset="0" style="stop-color:rgb(135,102,17);stop-opacity:1"/><stop offset="1" style="stop-color:rgb(215,193,103);stop-opacity:1"/></linearGradient>
        <linearGradient id="_Linear2" x1="0" y1="0" x2="1" y2="0" gradientUnits="userSpaceOnUse" gradientTransform="matrix(-76.5256,-4.79616e-14,8.52651e-14,-25.2594,31.0453,102.45)"><stop offset="0" style="stop-color:rgb(135,102,17);stop-opacity:1"/><stop offset="1" style="stop-color:rgb(215,193,103);stop-opacity:1"/></linearGradient>
        <linearGradient id="_Linear3" x1="0" y1="0" x2="1" y2="0" gradientUnits="userSpaceOnUse" gradientTransform="matrix(-76.5256,-6.39488e-14,9.9476e-14,-40.0974,41.6552,109.243)"><stop offset="0" style="stop-color:rgb(135,102,17);stop-opacity:1"/><stop offset="1" style="stop-color:rgb(215,193,103);stop-opacity:1"/></linearGradient>
        <linearGradient id="_Linear4" x1="0" y1="0" x2="1" y2="0" gradientUnits="userSpaceOnUse" gradientTransform="matrix(-76.5256,-1.20792e-13,9.9476e-14,-80.3846,41.6552,77.2114)"><stop offset="0" style="stop-color:rgb(135,102,17);stop-opacity:1"/><stop offset="1" style="stop-color:rgb(215,193,103);stop-opacity:1"/></linearGradient>
        <linearGradient id="_Linear5" x1="0" y1="0" x2="1" y2="0" gradientUnits="userSpaceOnUse" gradientTransform="matrix(-1.06581e-13,103.77,-73.9636,-1.27898e-13,25.7629,115.253)"><stop offset="0" style="stop-color:rgb(135,102,17);stop-opacity:1"/><stop offset="1" style="stop-color:rgb(215,193,103);stop-opacity:1"/></linearGradient>
        <linearGradient id="_Linear6" x1="0" y1="0" x2="1" y2="0" gradientUnits="userSpaceOnUse" gradientTransform="matrix(-1.06581e-13,103.77,-73.9636,-1.35003e-13,40.5881,115.253)"><stop offset="0" style="stop-color:rgb(135,102,17);stop-opacity:1"/><stop offset="1" style="stop-color:rgb(215,193,103);stop-opacity:1"/></linearGradient>
        <linearGradient id="_Linear7" x1="0" y1="0" x2="1" y2="0" gradientUnits="userSpaceOnUse" gradientTransform="matrix(76.5256,1.49214e-13,-1.13687e-13,102.895,65.8393,117.369)"><stop offset="0" style="stop-color:rgb(135,102,17);stop-opacity:1"/><stop offset="1" style="stop-color:rgb(215,193,103);stop-opacity:1"/></linearGradient>
        <linearGradient id="_Linear8" x1="0" y1="0" x2="1" y2="0" gradientUnits="userSpaceOnUse" gradientTransform="matrix(-1.13687e-13,103.77,-73.9636,-1.27898e-13,50.8254,115.253)"><stop offset="0" style="stop-color:rgb(135,102,17);stop-opacity:1"/><stop offset="1" style="stop-color:rgb(215,193,103);stop-opacity:1"/></linearGradient>
        <linearGradient id="_Linear9" x1="0" y1="0" x2="1" y2="0" gradientUnits="userSpaceOnUse" gradientTransform="matrix(-76.5256,-7.81597e-14,9.23706e-14,-52.5955,52.2557,107.837)"><stop offset="0" style="stop-color:rgb(135,102,17);stop-opacity:1"/><stop offset="1" style="stop-color:rgb(215,193,103);stop-opacity:1"/></linearGradient>
        <linearGradient id="_Linear10" x1="0" y1="0" x2="1" y2="0" gradientUnits="userSpaceOnUse" gradientTransform="matrix(9.23706e-14,-63.4963,76.5256,7.81597e-14,34.9604,107.899)"><stop offset="0" style="stop-color:rgb(135,102,17);stop-opacity:1"/><stop offset="1" style="stop-color:rgb(215,193,103);stop-opacity:1"/></linearGradient>
        <linearGradient id="_Linear11" x1="0" y1="0" x2="1" y2="0" gradientUnits="userSpaceOnUse" gradientTransform="matrix(-76.5256,-1.7053e-13,1.06581e-13,-139.884,73.6742,135.971)"><stop offset="0" style="stop-color:rgb(135,102,17);stop-opacity:1"/><stop offset="1" style="stop-color:rgb(215,193,103);stop-opacity:1"/></linearGradient>
        <linearGradient id="_Linear12" x1="0" y1="0" x2="1" y2="0" gradientUnits="userSpaceOnUse" gradientTransform="matrix(-76.5256,-1.13687e-13,9.9476e-14,-80.3846,52.2557,77.2114)"><stop offset="0" style="stop-color:rgb(135,102,17);stop-opacity:1"/><stop offset="1" style="stop-color:rgb(215,193,103);stop-opacity:1"/></linearGradient>
        <linearGradient id="_Linear13" x1="0" y1="0" x2="1" y2="0" gradientUnits="userSpaceOnUse" gradientTransform="matrix(1.20792e-13,-64.0721,76.5256,9.23706e-14,51.5553,116.731)"><stop offset="0" style="stop-color:rgb(135,102,17);stop-opacity:1"/><stop offset="1" style="stop-color:rgb(215,193,103);stop-opacity:1"/></linearGradient>
        <linearGradient id="_Linear14" x1="0" y1="0" x2="1" y2="0" gradientUnits="userSpaceOnUse" gradientTransform="matrix(-73.9636,-1.27898e-13,1.06581e-13,-76.0244,62.7622,105.086)"><stop offset="0" style="stop-color:rgb(135,102,17);stop-opacity:1"/><stop offset="1" style="stop-color:rgb(215,193,103);stop-opacity:1"/></linearGradient>
        <linearGradient id="_Linear15" x1="0" y1="0" x2="1" y2="0" gradientUnits="userSpaceOnUse" gradientTransform="matrix(-73.9636,-1.7053e-13,1.13687e-13,-103.77,83.0054,101.828)"><stop offset="0" style="stop-color:rgb(135,102,17);stop-opacity:1"/><stop offset="1" style="stop-color:rgb(215,193,103);stop-opacity:1"/></linearGradient>
        <linearGradient id="_Linear16" x1="0" y1="0" x2="1" y2="0" gradientUnits="userSpaceOnUse" gradientTransform="matrix(1.27898e-13,-64.0721,76.5256,9.23706e-14,62.1558,116.731)"><stop offset="0" style="stop-color:rgb(135,102,17);stop-opacity:1"/><stop offset="1" style="stop-color:rgb(215,193,103);stop-opacity:1"/></linearGradient>
        <linearGradient id="_Linear17" x1="0" y1="0" x2="1" y2="0" gradientUnits="userSpaceOnUse" gradientTransform="matrix(-76.5256,-1.13687e-13,9.9476e-14,-79.9467,62.8411,77.4118)"><stop offset="0" style="stop-color:rgb(135,102,17);stop-opacity:1"/><stop offset="1" style="stop-color:rgb(215,193,103);stop-opacity:1"/></linearGradient>
        <linearGradient id="_Linear18" x1="0" y1="0" x2="1" y2="0" gradientUnits="userSpaceOnUse" gradientTransform="matrix(-76.5256,-1.13687e-13,9.23706e-14,-79.9467,73.4769,77.4118)"><stop offset="0" style="stop-color:rgb(135,102,17);stop-opacity:1"/><stop offset="1" style="stop-color:rgb(215,193,103);stop-opacity:1"/></linearGradient>
        <linearGradient id="_Linear19" x1="0" y1="0" x2="1" y2="0" gradientUnits="userSpaceOnUse" gradientTransform="matrix(-1.06581e-13,36.556,-76.5256,-5.32907e-14,88.2048,94.4056)"><stop offset="0" style="stop-color:rgb(135,102,17);stop-opacity:1"/><stop offset="1" style="stop-color:rgb(215,193,103);stop-opacity:1"/></linearGradient>
        <linearGradient id="_Linear20" x1="0" y1="0" x2="1" y2="0" gradientUnits="userSpaceOnUse" gradientTransform="matrix(-76.5256,-1.13687e-13,9.9476e-14,-79.9467,84.0662,77.4118)"><stop offset="0" style="stop-color:rgb(135,102,17);stop-opacity:1"/><stop offset="1" style="stop-color:rgb(215,193,103);stop-opacity:1"/></linearGradient>
        <linearGradient id="_Linear21" x1="0" y1="0" x2="1" y2="0" gradientUnits="userSpaceOnUse" gradientTransform="matrix(-76.5256,-1.13687e-13,9.23706e-14,-76.7872,84.0388,126.04)"><stop offset="0" style="stop-color:rgb(135,102,17);stop-opacity:1"/><stop offset="1" style="stop-color:rgb(215,193,103);stop-opacity:1"/></linearGradient>
        <linearGradient id="_Linear22" x1="0" y1="0" x2="1" y2="0" gradientUnits="userSpaceOnUse" gradientTransform="matrix(-76.5256,-4.44089e-14,9.9476e-14,-25.2587,94.6602,102.449)"><stop offset="0" style="stop-color:rgb(135,102,17);stop-opacity:1"/><stop offset="1" style="stop-color:rgb(215,193,103);stop-opacity:1"/></linearGradient>
        <linearGradient id="_Linear23" x1="0" y1="0" x2="1" y2="0" gradientUnits="userSpaceOnUse" gradientTransform="matrix(-1.06581e-13,46.2419,-73.9636,-5.68434e-14,25.7629,88.9419)"><stop offset="0" style="stop-color:rgb(135,102,17);stop-opacity:1"/><stop offset="1" style="stop-color:rgb(215,193,103);stop-opacity:1"/></linearGradient>
    </defs>
</svg>
